<svg width="44" height="44" viewBox="0 0 44 44" xmlns="http://www.w3.org/2000/svg">
<path d="M15.3331 13.4V9.35C15.3331 8.60442 15.9301 8 16.6665 8H32.6667C33.4031 8 34 8.60442 34 9.35V28.25C34 28.9956 33.4031 29.6 32.6667 29.6H28.6666V33.6488C28.6666 34.3951 28.0667 35 27.3242 35H11.3422C10.6008 35 10 34.3998 10 33.6488L10.0035 14.7512C10.0036 14.0049 10.6035 13.4 11.3459 13.4H15.3331ZM12.6699 16.1L12.6669 32.3H25.9999V16.1H12.6699ZM17.9998 13.4H28.6666V26.9H31.3333V10.7H17.9998V13.4Z" />
</svg>
