<svg width="44" height="44" viewBox="0 0 44 44" xmlns="http://www.w3.org/2000/svg">
<path d="M12.3207 13.9938L8.27437 9.86667L10.1045 8L35.7257 34.1332L33.8956 36L29.6122 31.631C27.4107 33.0548 24.7997 33.8794 22 33.8794C15.0222 33.8794 9.21708 28.7583 8 22C8.56509 18.8621 10.1193 16.0771 12.3207 13.9938ZM25.5683 27.5063L23.6738 25.5739C23.1669 25.8212 22.5993 25.9598 22 25.9598C19.8559 25.9598 18.1178 24.1869 18.1178 22C18.1178 21.3886 18.2536 20.8097 18.4961 20.2927L16.6017 18.3604C15.9242 19.4037 15.5297 20.6549 15.5297 22C15.5297 25.6449 18.4265 28.5997 22 28.5997C23.3187 28.5997 24.5453 28.1972 25.5683 27.5063ZM16.7903 11.1237C18.4038 10.4762 20.1612 10.1206 22 10.1206C28.9778 10.1206 34.7829 15.2416 36 22C35.596 24.2434 34.6864 26.3064 33.3962 28.0615L28.4014 22.9669C28.4468 22.6513 28.4704 22.3284 28.4704 22C28.4704 18.3551 25.5735 15.4003 22 15.4003C21.6779 15.4003 21.3614 15.4243 21.052 15.4706L16.7903 11.1237Z" />
</svg>
