<svg width="44" height="44" viewBox="0 0 44 44" xmlns="http://www.w3.org/2000/svg">
<path d="M8 22C9.21708 15.173 15.0222 10 22 10C28.9778 10 34.7829 15.173 36 22C34.7829 28.8269 28.9778 34 22 34C15.0222 34 9.21708 28.8269 8 22ZM22 28.6667C25.5735 28.6667 28.4704 25.6819 28.4704 22C28.4704 18.3181 25.5735 15.3333 22 15.3333C18.4265 15.3333 15.5297 18.3181 15.5297 22C15.5297 25.6819 18.4265 28.6667 22 28.6667ZM22 26C19.8559 26 18.1178 24.2092 18.1178 22C18.1178 19.7908 19.8559 18 22 18C24.144 18 25.8822 19.7908 25.8822 22C25.8822 24.2092 24.144 26 22 26Z" />
</svg>
