<svg width="38" height="38" viewBox="0 0 38 38" xmlns="http://www.w3.org/2000/svg">
<path d="M5.98986 4.47414L19 1.58301L32.0101 4.47414C32.7346 4.63514 33.25 5.27767 33.25 6.01978V21.8321C33.25 25.0084 31.6625 27.9746 29.0196 29.7366L19 36.4163L8.98035 29.7366C6.33747 27.9746 4.75 25.0084 4.75 21.8321V6.01978C4.75 5.27767 5.26542 4.63514 5.98986 4.47414ZM19 17.4163C21.1861 17.4163 22.9583 15.6441 22.9583 13.458C22.9583 11.2719 21.1861 9.49967 19 9.49967C16.8139 9.49967 15.0417 11.2719 15.0417 13.458C15.0417 15.6441 16.8139 17.4163 19 17.4163ZM11.9185 25.333H26.0815C25.6877 21.7705 22.6675 18.9997 19 18.9997C15.3326 18.9997 12.3123 21.7705 11.9185 25.333Z" />
</svg>
