<svg width="38" height="38" viewBox="0 0 38 38" xmlns="http://www.w3.org/2000/svg">
<path d="M28.5 12.6663H31.6667C32.5411 12.6663 33.25 13.3752 33.25 14.2497V33.2497C33.25 34.1241 32.5411 34.833 31.6667 34.833H6.33333C5.45889 34.833 4.75 34.1241 4.75 33.2497V14.2497C4.75 13.3752 5.45889 12.6663 6.33333 12.6663H9.5V11.083C9.5 5.8363 13.7533 1.58301 19 1.58301C24.2467 1.58301 28.5 5.8363 28.5 11.083V12.6663ZM17.4167 24.9093V28.4997H20.5833V24.9093C21.5299 24.3618 22.1667 23.3385 22.1667 22.1663C22.1667 20.4174 20.749 18.9997 19 18.9997C17.251 18.9997 15.8333 20.4174 15.8333 22.1663C15.8333 23.3385 16.4701 24.3618 17.4167 24.9093ZM25.3333 12.6663V11.083C25.3333 7.5852 22.4977 4.74967 19 4.74967C15.5022 4.74967 12.6667 7.5852 12.6667 11.083V12.6663H25.3333Z" />
</svg>
