<svg width="38" height="38" viewBox="0 0 38 38" xmlns="http://www.w3.org/2000/svg">
<path d="M19.0001 3.16699C27.7401 3.16699 34.8334 10.2603 34.8334 19.0003C34.8334 27.7403 27.7401 34.8337 19.0001 34.8337C10.2601 34.8337 3.16675 27.7403 3.16675 19.0003C3.16675 10.2603 10.2601 3.16699 19.0001 3.16699ZM9.53701 24.4095C11.8606 27.8779 15.3507 30.0837 19.2529 30.0837C23.1552 30.0837 26.6454 27.8779 28.9689 24.4095C26.4235 22.0359 23.0078 20.5837 19.2529 20.5837C15.4981 20.5837 12.0824 22.0359 9.53701 24.4095ZM19.0001 17.417C21.6235 17.417 23.7501 15.2903 23.7501 12.667C23.7501 10.0436 21.6235 7.91699 19.0001 7.91699C16.3767 7.91699 14.2501 10.0436 14.2501 12.667C14.2501 15.2903 16.3767 17.417 19.0001 17.417Z" />
</svg>
