<svg width="32" height="32" viewBox="0 0 32 32" xmlns="http://www.w3.org/2000/svg">
<path d="M3.98907 28C3.25873 28 2.66667 27.4068 2.66667 26.6755V5.32453C2.66667 4.59301 3.27375 4 3.98907 4H28.0109C28.7413 4 29.3333 4.59327 29.3333 5.32453V26.6755C29.3333 27.4069 28.7263 28 28.0109 28H3.98907ZM26.6667 20V6.66667H5.33333V25.3333L18.6667 12L26.6667 20ZM26.6667 23.7712L18.6667 15.7712L9.10457 25.3333H26.6667V23.7712ZM10.6667 14.6667C9.19391 14.6667 8 13.4728 8 12C8 10.5272 9.19391 9.33333 10.6667 9.33333C12.1394 9.33333 13.3333 10.5272 13.3333 12C13.3333 13.4728 12.1394 14.6667 10.6667 14.6667Z" />
</svg>
