<svg width="34" height="34" viewBox="0 0 34 34" xmlns="http://www.w3.org/2000/svg">
<path d="M28.3333 4.25C29.1158 4.25 29.75 4.88427 29.75 5.66667V8.15575L26.9167 10.9891V7.08333H7.08333V18.5583L12.75 12.8924L18.8813 19.0244L17.0017 20.9046L16.9929 26.9096L23.0086 26.9184L24.8922 25.0339L26.7743 26.9167H26.9167V23.0095L29.75 20.1762V28.3333C29.75 29.1158 29.1158 29.75 28.3333 29.75H5.66667C4.88427 29.75 4.25 29.1158 4.25 28.3333V5.66667C4.25 4.88427 4.88427 4.25 5.66667 4.25H28.3333ZM30.8524 11.0608L32.8559 13.0643L21.8368 24.0833L19.8304 24.0804L19.8333 22.0799L30.8524 11.0608ZM21.9583 9.91667C23.1319 9.91667 24.0833 10.8681 24.0833 12.0417C24.0833 13.2153 23.1319 14.1667 21.9583 14.1667C20.7848 14.1667 19.8333 13.2153 19.8333 12.0417C19.8333 10.8681 20.7848 9.91667 21.9583 9.91667Z" />
</svg>
