<svg width="34" height="34" viewBox="0 0 34 34" fill="none" xmlns="http://www.w3.org/2000/svg">
<g clip-path="url(#clip0_49_836)">
<path d="M29.3441 11.5149L28.9948 12.3163C28.7392 12.903 27.9278 12.903 27.6721 12.3163L27.3228 11.5149C26.7002 10.086 25.5788 8.94833 24.1794 8.32595L23.1032 7.84731C22.5213 7.5885 22.5213 6.74173 23.1032 6.48292L24.1192 6.03103C25.5546 5.39264 26.6961 4.21287 27.308 2.73542L27.6667 1.86942C27.9167 1.26586 28.7503 1.26586 29.0002 1.86942L29.3589 2.73542C29.9709 4.21287 31.1124 5.39264 32.5478 6.03103L33.5637 6.48292C34.1457 6.74173 34.1457 7.5885 33.5637 7.84731L32.4876 8.32595C31.0882 8.94833 29.9668 10.086 29.3441 11.5149ZM4.23855 4.25008H19.8335V7.08342H5.66683V26.9167L18.8309 13.7509C19.3841 13.1977 20.281 13.1976 20.8344 13.7508L28.3335 21.2648V15.5834H31.1668V28.3428C31.1668 29.1199 30.5218 29.7501 29.7618 29.7501H4.23855C3.46257 29.7501 2.8335 29.1198 2.8335 28.3428V5.6574C2.8335 4.88016 3.47852 4.25008 4.23855 4.25008ZM11.3335 15.5834C9.76869 15.5834 8.50016 14.3149 8.50016 12.7501C8.50016 11.1853 9.76869 9.91675 11.3335 9.91675C12.8983 9.91675 14.1668 11.1853 14.1668 12.7501C14.1668 14.3149 12.8983 15.5834 11.3335 15.5834Z" fill="white"/>
</g>
<defs>
<clipPath id="clip0_49_836">
<rect width="34" height="34" fill="white"/>
</clipPath>
</defs>
</svg>
