<svg width="38" height="38" viewBox="0 0 38 38" fill="none" xmlns="http://www.w3.org/2000/svg">
<path d="M18.3824 30.1468L29.3039 35.8458C30.2776 36.3538 31.4155 35.5332 31.2296 34.4571L29.1438 22.3864L28.7621 23.5524L37.5978 15.0039C38.3855 14.2418 37.9508 12.914 36.8622 12.757L24.6516 10.9959L25.6509 11.7166L20.1901 0.734313C19.7033 -0.244771 18.2967 -0.244771 17.8099 0.734313L12.3491 11.7166L13.3484 10.9959L1.1378 12.757C0.0492046 12.914 -0.385466 14.2418 0.402248 15.0039L9.23792 23.5524L8.85623 22.3864L6.77041 34.4571C6.58445 35.5332 7.72243 36.3538 8.6961 35.8458L19.6176 30.1468H18.3824Z" fill="#FB458C"/>
</svg>