<svg width="38" height="36" viewBox="0 0 38 36" fill="none" xmlns="http://www.w3.org/2000/svg">
<path d="M7.4609 33.5138L9.3866 34.9025L11.4724 22.8318C11.5463 22.4045 11.4035 21.9684 11.0907 21.6658L2.25505 13.1173L1.5195 15.3643L13.7301 13.6032C14.1624 13.5408 14.5361 13.2713 14.7294 12.8825L20.1901 1.9003H17.8099L23.2706 12.8825C23.4639 13.2713 23.8376 13.5408 24.2699 13.6032L36.4805 15.3643L35.745 13.1173L26.9093 21.6658C26.5965 21.9684 26.4537 22.4045 26.5276 22.8318L28.6134 34.9025L30.5391 33.5138L19.6176 27.8148C19.231 27.613 18.769 27.613 18.3824 27.8148L7.4609 33.5138ZM18.3824 30.1468L29.3039 35.8458C30.2776 36.3538 31.4155 35.5332 31.2296 34.4571L29.1438 22.3864L28.7621 23.5524L37.5978 15.0039C38.3855 14.2418 37.9508 12.914 36.8622 12.757L24.6516 10.9959L25.6509 11.7166L20.1901 0.734313C19.7033 -0.244771 18.2967 -0.244771 17.8099 0.734313L12.3491 11.7166L13.3484 10.9959L1.1378 12.757C0.0492046 12.914 -0.385466 14.2418 0.402248 15.0039L9.23792 23.5524L8.85623 22.3864L6.77041 34.4571C6.58445 35.5332 7.72243 36.3538 8.6961 35.8458L19.6176 30.1468H18.3824Z" fill="white"/>
</svg>