<svg width="44" height="44" viewBox="0 0 44 44" fill="none" xmlns="http://www.w3.org/2000/svg">
<path d="M20.1667 20.1667V12.8334H23.8333V20.1667H31.1667V23.8334H23.8333V31.1667H20.1667V23.8334H12.8333V20.1667H20.1667ZM22 40.3334C11.8748 40.3334 3.66666 32.1252 3.66666 22.0001C3.66666 11.8749 11.8748 3.66675 22 3.66675C32.1251 3.66675 40.3333 11.8749 40.3333 22.0001C40.3333 32.1252 32.1251 40.3334 22 40.3334ZM22 36.6667C30.1002 36.6667 36.6667 30.1003 36.6667 22.0001C36.6667 13.8999 30.1002 7.33341 22 7.33341C13.8998 7.33341 7.33333 13.8999 7.33333 22.0001C7.33333 30.1003 13.8998 36.6667 22 36.6667Z" fill="#A0999C"/>
</svg>
