<svg width="27" height="23" viewBox="0 0 27 23" fill="none" xmlns="http://www.w3.org/2000/svg">
<path d="M19.6357 10.0023C21.3204 8.26952 24.0518 8.26952 25.7365 10.0023C27.4212 11.735 27.4212 14.5443 25.7365 16.277L19.2 23L12.6635 16.277C10.9788 14.5443 10.9788 11.735 12.6635 10.0023C14.3481 8.26952 17.0796 8.26952 18.7643 10.0023L19.1995 10.4496L19.6357 10.0023ZM21.8911 2.18483C23.0197 3.35647 23.6953 4.81698 23.9181 6.33414C22.3191 6.02661 20.6318 6.32243 19.2001 7.22076C16.6189 5.60101 13.2067 5.93984 10.9727 8.23766C8.41551 10.8677 8.34448 15.0936 10.7595 17.8123L10.9727 18.0416L13.878 21.0307L11.9999 22.9814L1.82565 12.4237C-0.699541 9.49465 -0.605151 4.99661 2.10883 2.18483C4.82588 -0.630137 9.17422 -0.724972 12.0012 1.90034C14.82 -0.72108 19.176 -0.634053 21.8911 2.18483Z" fill="#A0999C"/>
<path d="M19.6357 10.0023C21.3204 8.26952 24.0518 8.26952 25.7365 10.0023C27.4212 11.735 27.4212 14.5443 25.7365 16.277L19.2 23L12.6635 16.277C10.9788 14.5443 10.9788 11.735 12.6635 10.0023C14.3481 8.26952 17.0796 8.26952 18.7643 10.0023L19.1995 10.4496L19.6357 10.0023ZM21.8911 2.18483C23.0197 3.35647 23.6953 4.81698 23.9181 6.33414C22.3191 6.02661 20.6318 6.32243 19.2001 7.22076C16.6189 5.60101 13.2067 5.93984 10.9727 8.23766C8.41551 10.8677 8.34448 15.0936 10.7595 17.8123L10.9727 18.0416L13.878 21.0307L11.9999 22.9814L1.82565 12.4237C-0.699541 9.49465 -0.605151 4.99661 2.10883 2.18483C4.82588 -0.630137 9.17422 -0.724972 12.0012 1.90034C14.82 -0.72108 19.176 -0.634053 21.8911 2.18483Z" fill="url(#paint0_linear_37_38)"/>
<defs>
<linearGradient id="paint0_linear_37_38" x1="13.5" y1="0" x2="13.5" y2="23" gradientUnits="userSpaceOnUse">
<stop stop-color="white"/>
<stop offset="0.674" stop-color="#FB458C"/>
</linearGradient>
</defs>
</svg>

