<svg width="48" height="48" viewBox="0 0 48 48" fill="none" xmlns="http://www.w3.org/2000/svg">
<path d="M24 44C12.9543 44 4 35.0456 4 24C4 12.9543 12.9543 4 24 4C35.0456 4 44 12.9543 44 24C44 35.0456 35.0456 44 24 44ZM16 26C16 30.4182 19.5817 34 24 34C28.4182 34 32 30.4182 32 26H16ZM16 22C17.6569 22 19 20.6568 19 19C19 17.3431 17.6569 16 16 16C14.3431 16 13 17.3431 13 19C13 20.6568 14.3431 22 16 22ZM32 22C33.6568 22 35 20.6568 35 19C35 17.3431 33.6568 16 32 16C30.3432 16 29 17.3431 29 19C29 20.6568 30.3432 22 32 22Z" fill="white"/>
</svg>
