<svg width="44" height="44" viewBox="0 0 44 44" xmlns="http://www.w3.org/2000/svg">
<path d="M3.66663 22.0001C3.66663 32.1252 11.8747 40.3334 22 40.3334C32.1251 40.3334 40.3333 32.1252 40.3333 22.0001C40.3333 11.8749 32.1251 3.66675 22 3.66675V7.33341C30.1002 7.33341 36.6666 13.8999 36.6666 22.0001C36.6666 30.1003 30.1002 36.6667 22 36.6667C13.8998 36.6667 7.33329 30.1003 7.33329 22.0001C7.33329 16.9588 9.87675 12.5116 13.7504 9.87168L13.75 14.6667H17.4166V3.66675H6.41663V7.33341L10.9985 7.33321C6.54633 10.678 3.66663 16.0028 3.66663 22.0001Z" />
</svg>
