<svg width="42" height="42" viewBox="0 0 42 42" fill="none" xmlns="http://www.w3.org/2000/svg">
<path d="M33.7809 9.34003C31.3852 8.2443 28.8409 7.44573 26.1851 7C25.8508 7.57573 25.4793 8.35574 25.2192 8.96861C22.3946 8.56002 19.5902 8.56002 16.8045 8.96861C16.5444 8.35574 16.1544 7.57573 15.8387 7C13.1644 7.44573 10.6201 8.2443 8.24101 9.34003C3.43093 16.4344 2.1309 23.3616 2.78092 30.1961C5.97525 32.5176 9.05821 33.929 12.0873 34.8577C12.8301 33.8548 13.4987 32.7775 14.0745 31.6447C12.9787 31.2361 11.9387 30.7347 10.9358 30.1404C11.1958 29.9548 11.4558 29.7505 11.6973 29.5461C17.7516 32.3134 24.3094 32.3134 30.2894 29.5461C30.5494 29.7505 30.7909 29.9548 31.0509 30.1404C30.048 30.7347 29.008 31.2361 27.9123 31.6447C28.4881 32.7775 29.1566 33.8548 29.8994 34.8577C32.9266 33.929 36.0281 32.5176 39.2058 30.1961C40.0043 22.2847 37.941 15.4131 33.7809 9.34003ZM14.9102 25.9803C13.0901 25.9803 11.6044 24.3275 11.6044 22.3032C11.6044 20.2788 13.053 18.6259 14.9102 18.6259C16.7487 18.6259 18.253 20.2788 18.2159 22.3032C18.2159 24.3275 16.7487 25.9803 14.9102 25.9803ZM27.1138 25.9803C25.2936 25.9803 23.8059 24.3275 23.8059 22.3032C23.8059 20.2788 25.2565 18.6259 27.1138 18.6259C28.9523 18.6259 30.4566 20.2788 30.4194 22.3032C30.4194 24.3275 28.9709 25.9803 27.1138 25.9803Z" fill="white"/>
</svg>
