<svg width="42" height="42" viewBox="0 0 42 42" fill="none" xmlns="http://www.w3.org/2000/svg">
<path d="M5.36137 13.141C8.24091 7.42161 14.159 3.5 21 3.5C25.7169 3.5 29.6782 5.23416 32.7091 8.05796L27.6897 13.0773C25.8762 11.3432 23.5692 10.4602 21 10.4602C16.442 10.4602 12.584 13.5386 11.208 17.675C10.8579 18.725 10.659 19.8466 10.659 21C10.659 22.1534 10.8579 23.275 11.208 24.325C12.584 28.4613 16.442 31.5397 21 31.5397C23.3544 31.5397 25.3591 30.9193 26.9262 29.8693C28.7794 28.6284 30.0125 26.775 30.4181 24.5875H21V17.8181H37.4817C37.6887 18.9635 37.8 20.1568 37.8 21.3978C37.8 26.7272 35.8909 31.2135 32.5817 34.2603C29.6863 36.933 25.725 38.5 21 38.5C14.159 38.5 8.24091 34.5784 5.36137 28.8591C4.17617 26.4966 3.5 23.8238 3.5 21C3.5 18.1762 4.17617 15.5034 5.36137 13.141Z" fill="white"/>
</svg>