<svg width="46" height="46" viewBox="0 0 46 46" fill="none" xmlns="http://www.w3.org/2000/svg">
<path d="M23 44.0833C15.0609 44.0833 8.625 37.6474 8.625 29.7083C8.625 25.5802 10.3651 21.8586 13.1518 19.2368C15.7244 16.8164 22.0417 12.4574 21.0833 2.875C32.5833 10.5417 38.3333 18.2083 26.8333 29.7083C28.75 29.7083 31.625 29.7083 36.4167 24.9734C36.9336 26.4561 37.375 28.0495 37.375 29.7083C37.375 37.6474 30.939 44.0833 23 44.0833Z" fill="black"/>
<path d="M23 44.0833C15.0609 44.0833 8.625 37.6474 8.625 29.7083C8.625 25.5802 10.3651 21.8586 13.1518 19.2368C15.7244 16.8164 22.0417 12.4574 21.0833 2.875C32.5833 10.5417 38.3333 18.2083 26.8333 29.7083C28.75 29.7083 31.625 29.7083 36.4167 24.9734C36.9336 26.4561 37.375 28.0495 37.375 29.7083C37.375 37.6474 30.939 44.0833 23 44.0833Z" fill="url(#paint0_linear_130_4948)"/>
<defs>
<linearGradient id="paint0_linear_130_4948" x1="23" y1="2.875" x2="23" y2="44.0833" gradientUnits="userSpaceOnUse">
<stop stop-color="white"/>
<stop offset="0.674" stop-color="#FB458C"/>
</linearGradient>
</defs>
</svg>
