<svg width="52" height="52" viewBox="0 0 52 52" fill="none" xmlns="http://www.w3.org/2000/svg">
<path d="M4.65306 25.5881C16.0224 20.6348 23.6037 17.3692 27.3969 15.7914C38.2277 11.2865 40.4782 10.504 41.945 10.4781C42.2676 10.4724 42.9891 10.5524 43.4563 10.9316C43.8508 11.2517 43.9594 11.6842 44.0114 11.9877C44.0634 12.2913 44.1279 12.9827 44.0766 13.523C43.4896 19.6899 40.9501 34.6552 39.6581 41.5621C39.1114 44.4847 38.035 45.4645 36.9929 45.5604C34.7281 45.7689 33.0082 44.0637 30.8146 42.6259C27.3822 40.3758 25.443 38.9751 22.1111 36.7794C18.2606 34.242 20.7568 32.8473 22.9511 30.5682C23.5255 29.9717 33.5043 20.8953 33.6974 20.0719C33.7214 19.9689 33.744 19.5851 33.5158 19.3824C33.2879 19.1797 32.9514 19.249 32.7085 19.3041C32.3642 19.3823 26.8806 23.0065 16.258 30.1773C14.7015 31.2459 13.2917 31.7668 12.0286 31.7395C10.6361 31.7094 7.95749 30.9521 5.96621 30.3049C3.52384 29.5109 1.58268 29.0912 1.75172 27.7429C1.83976 27.0406 2.80687 26.3224 4.65306 25.5881Z" fill="white"/>
</svg>
