<svg width="52" height="52" viewBox="0 0 52 52" fill="none" xmlns="http://www.w3.org/2000/svg">
<path d="M34.6667 17.8649V33.5833C34.6667 41.3614 28.3615 47.6666 20.5833 47.6666C12.8053 47.6666 6.5 41.3614 6.5 33.5833C6.5 25.8052 12.8053 19.5 20.5833 19.5C21.702 19.5 22.7901 19.6304 23.8333 19.8768V26.7297C22.8484 26.2617 21.7464 26 20.5833 26C16.3952 26 13 29.3951 13 33.5833C13 37.7715 16.3952 41.1666 20.5833 41.1666C24.7715 41.1666 28.1667 37.7715 28.1667 33.5833V4.33331H34.6667C34.6667 10.3164 39.517 15.1666 45.5 15.1666V21.6666C41.4009 21.6666 37.6341 20.2438 34.6667 17.8649Z" fill="white"/>
</svg>
