<svg width="63" height="62" viewBox="0 0 63 62" fill="none" xmlns="http://www.w3.org/2000/svg">
<path d="M19.0384 18.7972C15.9934 21.9613 14.1212 26.262 14.1212 31C14.1212 40.7203 22.001 48.6 31.7212 48.6C34.099 48.6 36.3667 48.1285 38.4358 47.2738C38.6888 45.6227 38.1338 44.0385 37.9067 43.4841C37.4016 42.253 35.7342 40.148 32.9508 37.2278C32.2078 36.4468 32.2556 35.8477 32.5211 34.0675L32.5517 33.8664C32.7321 32.6469 33.0348 31.926 37.138 31.2746C39.2225 30.9441 39.7708 31.7773 40.5307 32.9309C40.6147 33.0588 40.6987 33.1842 40.7848 33.3098C41.5066 34.3653 42.0414 34.6067 42.8492 34.9741C43.2111 35.1382 43.6628 35.3452 44.268 35.6891C45.7024 36.5088 45.7024 37.4343 45.7024 39.4638V39.694C45.7024 40.5555 45.6182 41.3118 45.4857 41.969C47.8864 38.9607 49.3212 35.1479 49.3212 31C49.3212 23.742 44.9278 17.51 38.6554 14.8186C37.4383 15.6399 35.7688 16.804 35.1862 17.602C34.8883 18.0098 34.4672 20.0917 33.0977 20.2635C32.7389 20.3085 32.2576 20.277 31.7476 20.2441C30.3803 20.1553 28.5096 20.0353 27.9108 21.6609C27.5306 22.691 27.4638 25.4878 28.6938 26.9395C28.8907 27.1713 28.9287 27.6003 28.795 28.0817C28.6192 28.7138 28.2641 29.0983 28.1535 29.1777C27.9414 29.0559 27.5183 28.5648 27.2318 28.2306C26.5414 27.4283 25.6801 26.4291 24.5667 26.1199C24.1619 26.0078 23.7168 25.9151 23.2852 25.8242C22.0773 25.571 20.7089 25.2829 20.391 24.6046C20.1589 24.1078 20.1599 23.4237 20.1608 22.7008C20.1608 21.7846 20.1608 20.7486 19.712 19.7416C19.5386 19.3519 19.3063 19.0418 19.0384 18.7972ZM31.7212 53C19.5709 53 9.72119 43.1502 9.72119 31C9.72119 18.8497 19.5709 9 31.7212 9C43.8714 9 53.7212 18.8497 53.7212 31C53.7212 43.1502 43.8714 53 31.7212 53Z" fill="white"/>
</svg>
