<svg width="35" height="34" viewBox="0 0 35 34" fill="none" xmlns="http://www.w3.org/2000/svg">
<path d="M26.2651 23.5405L32.3322 29.6076L30.3288 31.6111L24.2616 25.5439C22.0801 27.2892 19.3135 28.3333 16.3045 28.3333C9.2665 28.3333 3.5545 22.6213 3.5545 15.5833C3.5545 8.54533 9.2665 2.83333 16.3045 2.83333C23.3425 2.83333 29.0545 8.54533 29.0545 15.5833C29.0545 18.5923 28.0104 21.3589 26.2651 23.5405ZM23.4228 22.4893C25.1551 20.704 26.2212 18.2688 26.2212 15.5833C26.2212 10.1044 21.7835 5.66666 16.3045 5.66666C10.8255 5.66666 6.38784 10.1044 6.38784 15.5833C6.38784 21.0623 10.8255 25.5 16.3045 25.5C18.9899 25.5 21.4252 24.434 23.2105 22.7017L23.4228 22.4893Z" fill="white"/>
</svg>
