<svg width="30" height="30" viewBox="0 0 30 30" fill="currentColor" xmlns="http://www.w3.org/2000/svg">
<path d="M24.3044 15.7564C24.1775 15.7564 24.0684 15.7341 23.9766 15.6882C23.8849 15.6427 23.8078 15.5815 23.7466 15.5056C23.6855 15.4286 23.6383 15.3372 23.6054 15.2316C23.5726 15.1236 23.5541 15.0118 23.5505 14.8989H22.7235C22.7192 15.1517 22.7551 15.3759 22.8307 15.5705C22.9064 15.7652 23.0135 15.9297 23.1525 16.0646C23.2914 16.1997 23.4596 16.302 23.6575 16.3725C23.856 16.4425 24.0754 16.4784 24.3166 16.4784C24.525 16.4784 24.7248 16.4467 24.9171 16.3846C25.109 16.3228 25.279 16.2312 25.4253 16.1116C25.5727 15.9909 25.6902 15.842 25.7781 15.6639C25.8658 15.4854 25.9095 15.2823 25.9095 15.0545C25.9095 14.8059 25.8424 14.5922 25.7077 14.4143C25.5727 14.2357 25.3863 14.1201 25.1496 14.0663V14.0534C25.3502 13.9959 25.5002 13.8858 25.6001 13.7239C25.7002 13.5626 25.7505 13.3758 25.7505 13.1647C25.7505 12.9696 25.7076 12.7976 25.6216 12.6487C25.5358 12.4991 25.4245 12.373 25.2878 12.2693C25.1508 12.1656 24.9966 12.0877 24.8253 12.0364C24.6536 11.9845 24.4824 11.9583 24.3106 11.9583C24.0899 11.9583 23.8897 11.9946 23.7101 12.0672C23.5305 12.1401 23.3763 12.2425 23.2477 12.3754C23.1188 12.5077 23.0186 12.6663 22.947 12.8508C22.8759 13.0351 22.836 13.2394 22.8277 13.4628H23.655C23.6507 13.2394 23.7049 13.0534 23.8172 12.9067C23.9299 12.7598 24.0959 12.6861 24.3166 12.6861C24.4756 12.6861 24.6168 12.7358 24.7393 12.835C24.8617 12.9349 24.9233 13.0776 24.9233 13.2641C24.9233 13.3885 24.8935 13.4879 24.8346 13.5626C24.775 13.6369 24.6995 13.6944 24.6078 13.7336C24.5155 13.7731 24.4162 13.7968 24.3106 13.8048C24.204 13.8131 24.1042 13.8131 24.0103 13.8048V14.4267C24.1164 14.4267 24.2279 14.4297 24.3441 14.4358C24.4604 14.4422 24.5679 14.4654 24.6658 14.5039C24.7637 14.5436 24.8445 14.6069 24.9079 14.694C24.9713 14.7809 25.0028 14.9075 25.0028 15.0733C25.0028 15.2847 24.9355 15.4513 24.8007 15.5739C24.6657 15.6964 24.5006 15.7564 24.3044 15.7564ZM14.0997 6.11647H14.9698V1.76465H14.2776C14.253 1.93048 14.2019 2.06967 14.1241 2.18145C14.0467 2.2934 13.952 2.38356 13.8396 2.45159C13.7268 2.51975 13.6006 2.56814 13.4593 2.59494C13.3151 2.62245 13.1682 2.63383 13.0215 2.62886V3.29443H14.0998L14.0997 6.11647ZM5.17974 9.95895C5.08973 10.0431 4.99236 10.1188 4.88883 10.1854C4.78725 10.2508 4.68698 10.3183 4.5881 10.3878C4.41157 10.5115 4.23689 10.6378 4.06412 10.7667C3.89877 10.8911 3.75514 11.0276 3.63226 11.1738C3.51004 11.321 3.41293 11.4881 3.34121 11.6744C3.26993 11.8609 3.23415 12.0807 3.23415 12.3339H6.38373V11.5751H4.35564C4.46174 11.4256 4.58418 11.2955 4.72302 11.1835C4.86125 11.0725 5.00435 10.9678 5.15189 10.8696C5.29887 10.7724 5.44498 10.6738 5.59019 10.5739C5.73542 10.475 5.86466 10.3643 5.97915 10.2416C6.09364 10.1198 6.18532 9.97966 6.25484 9.82227C6.32448 9.66411 6.35889 9.47586 6.35889 9.25624C6.35889 9.04508 6.31897 8.85441 6.23949 8.68431C6.15998 8.51404 6.05306 8.37185 5.91801 8.25526C5.78326 8.13915 5.62693 8.05042 5.44897 7.98816C5.27159 7.92604 5.08442 7.89452 4.88883 7.89452C4.63087 7.89452 4.40364 7.93947 4.2052 8.02844C4.00726 8.11784 3.8429 8.24219 3.71226 8.40132C3.5811 8.56072 3.48322 8.74756 3.418 8.96112C3.35261 9.1744 3.3241 9.40516 3.33202 9.65377H4.16548C4.16548 9.53829 4.17672 9.42105 4.19904 9.30325C4.22182 9.18488 4.25952 9.0769 4.31226 8.97976C4.36562 8.88215 4.43591 8.80395 4.52381 8.74373C4.61171 8.68337 4.71909 8.65356 4.84595 8.65356C5.03326 8.65356 5.18764 8.71202 5.30819 8.8307C5.42885 8.94857 5.48886 9.11324 5.48886 9.32473C5.48886 9.45755 5.45942 9.57543 5.40003 9.67911C5.34111 9.78265 5.26715 9.87598 5.17974 9.95895ZM27.2806 18.2013H21.477V29.9998H27.3186C28.3042 29.9998 29.1055 29.1862 29.1055 28.1865V20.0451C29.1055 19.0285 28.2871 18.2013 27.2806 18.2013ZM19.9147 9.23633C19.9147 8.23329 19.1127 7.41719 18.1278 7.41719H10.9792C9.99366 7.41719 9.19176 8.23329 9.19176 9.23633L9.19239 29.9998H19.9161V18.2988C19.9156 18.2989 19.9152 18.299 19.9147 18.2992V9.23636L19.9147 9.23633ZM0.000946045 15.4098V28.1865C0.000946045 29.1862 0.802872 29.9999 1.78786 29.9999H7.63147V13.5795H1.82605C0.81998 13.5795 0.000946045 14.4004 0.000946045 15.4098Z" fill="currentColor"/>
</svg>
