<svg width="293" height="48" viewBox="0 0 293 48" fill="none" xmlns="http://www.w3.org/2000/svg">
<path d="M0.6625 2.92H7.6225L18.2305 17.608L28.9345 2.92H35.8945V37H28.2145V16.024L18.2785 29.752L8.2945 15.976V37H0.6625V2.92ZM52.066 47.032H44.242L49.234 35.608L39.25 13H47.17L53.122 27.832L59.026 13H66.994L52.066 47.032ZM248.792 35.896C247.8 36.888 246.6 37.384 245.192 37.384C243.784 37.384 242.568 36.888 241.544 35.896C240.552 34.872 240.056 33.656 240.056 32.248C240.056 30.84 240.552 29.64 241.544 28.648C242.568 27.624 243.784 27.112 245.192 27.112C246.6 27.112 247.8 27.624 248.792 28.648C249.816 29.64 250.328 30.84 250.328 32.248C250.328 33.656 249.816 34.872 248.792 35.896ZM264.734 37.528C261.631 37.528 258.991 36.296 256.815 33.832C254.671 31.368 253.599 28.424 253.599 25C253.599 21.576 254.671 18.632 256.815 16.168C258.991 13.704 261.631 12.472 264.734 12.472C267.487 12.472 269.663 13.448 271.263 15.4V13H278.51V37H271.263V34.6C269.663 36.552 267.487 37.528 264.734 37.528ZM262.383 29.272C263.407 30.392 264.735 30.952 266.367 30.952C267.999 30.952 269.311 30.392 270.303 29.272C271.327 28.152 271.839 26.728 271.839 25C271.839 23.272 271.327 21.848 270.303 20.728C269.311 19.608 267.999 19.048 266.367 19.048C264.735 19.048 263.407 19.608 262.383 20.728C261.391 21.848 260.895 23.272 260.895 25C260.895 26.728 261.391 28.152 262.383 29.272ZM288.076 9.736C286.86 9.736 285.804 9.304 284.908 8.44C284.012 7.544 283.564 6.472 283.564 5.224C283.564 3.976 284.012 2.92 284.908 2.056C285.804 1.16 286.86 0.711998 288.076 0.711998C289.356 0.711998 290.428 1.16 291.292 2.056C292.188 2.92 292.636 3.976 292.636 5.224C292.636 6.472 292.188 7.544 291.292 8.44C290.428 9.304 289.356 9.736 288.076 9.736ZM284.476 37V13H291.724V37H284.476Z" fill="white"/>
<path d="M90.6183 6.28C92.9223 8.52 94.0743 11.288 94.0743 14.584C94.0743 17.88 92.9223 20.648 90.6183 22.888C88.3463 25.096 85.4983 26.2 82.0743 26.2H78.1383V37H70.5063V2.92H82.0743C85.4983 2.92 88.3463 4.04 90.6183 6.28ZM86.6823 14.584C86.6823 13.304 86.2343 12.248 85.3383 11.416C84.4743 10.552 83.3543 10.12 81.9783 10.12H78.1383V19.048H81.9783C83.3223 19.048 84.4423 18.616 85.3383 17.752C86.2343 16.888 86.6823 15.832 86.6823 14.584ZM107 37.528C103.896 37.528 101.256 36.296 99.0801 33.832C96.9361 31.368 95.8641 28.424 95.8641 25C95.8641 21.576 96.9361 18.632 99.0801 16.168C101.256 13.704 103.896 12.472 107 12.472C109.752 12.472 111.928 13.448 113.528 15.4V13H120.776V37H113.528V34.6C111.928 36.552 109.752 37.528 107 37.528ZM104.648 29.272C105.672 30.392 107 30.952 108.632 30.952C110.264 30.952 111.576 30.392 112.568 29.272C113.592 28.152 114.104 26.728 114.104 25C114.104 23.272 113.592 21.848 112.568 20.728C111.576 19.608 110.264 19.048 108.632 19.048C107 19.048 105.672 19.608 104.648 20.728C103.656 21.848 103.16 23.272 103.16 25C103.16 26.728 103.656 28.152 104.648 29.272ZM126.742 37V13H133.99V16.6C134.374 15.512 135.094 14.6 136.15 13.864C137.206 13.096 138.39 12.712 139.702 12.712C140.534 12.712 141.318 12.808 142.054 13V20.344C140.934 19.96 139.862 19.768 138.838 19.768C137.302 19.768 136.102 20.312 135.238 21.4C134.406 22.456 133.99 23.864 133.99 25.624V37H126.742ZM158.341 37.288C155.525 37.288 153.205 36.52 151.381 34.984C149.589 33.416 148.693 31.16 148.693 28.216V19.288H143.893V13H148.693V6.328H155.941V13H162.661V19.288H155.941V26.728C155.941 28.168 156.261 29.208 156.901 29.848C157.541 30.488 158.581 30.808 160.021 30.808C161.109 30.808 161.989 30.664 162.661 30.376V36.808C161.605 37.128 160.165 37.288 158.341 37.288ZM167.242 37V13H174.49V15.448C175.866 13.464 178.09 12.472 181.162 12.472C184.074 12.472 186.346 13.448 187.978 15.4C189.642 17.352 190.474 19.928 190.474 23.128V37H183.226V24.376C183.226 20.824 181.93 19.048 179.338 19.048C177.898 19.048 176.73 19.576 175.834 20.632C174.938 21.688 174.49 23.256 174.49 25.336V37H167.242ZM207.397 37.528C203.685 37.528 200.629 36.344 198.229 33.976C195.861 31.608 194.677 28.6 194.677 24.952C194.677 21.368 195.877 18.392 198.277 16.024C200.709 13.656 203.749 12.472 207.397 12.472C209.157 12.472 210.805 12.776 212.341 13.384C213.909 13.992 215.285 14.872 216.469 16.024C217.685 17.176 218.629 18.664 219.301 20.488C219.973 22.312 220.277 24.376 220.213 26.68H201.733C201.861 27.992 202.437 29.096 203.461 29.992C204.485 30.856 205.925 31.288 207.781 31.288C208.837 31.288 209.797 31.08 210.661 30.664C211.525 30.216 212.101 29.672 212.389 29.032H219.973C219.205 31.56 217.669 33.608 215.365 35.176C213.061 36.744 210.405 37.528 207.397 37.528ZM207.205 18.232C205.829 18.232 204.677 18.584 203.749 19.288C202.853 19.992 202.245 20.92 201.925 22.072H212.197C211.845 20.76 211.189 19.8 210.229 19.192C209.301 18.552 208.293 18.232 207.205 18.232ZM224.71 37V13H231.958V16.6C232.342 15.512 233.062 14.6 234.118 13.864C235.174 13.096 236.358 12.712 237.67 12.712C238.502 12.712 239.286 12.808 240.022 13V20.344C238.902 19.96 237.83 19.768 236.806 19.768C235.27 19.768 234.07 20.312 233.206 21.4C232.374 22.456 231.958 23.864 231.958 25.624V37H224.71Z" fill="#FB458C"/>
</svg>
