<svg width="240" height="240" viewBox="0 0 240 240" fill="none" xmlns="http://www.w3.org/2000/svg">
<path opacity="0.1" d="M24 210C24 213.183 34.1143 216.235 52.1177 218.485C70.1212 220.736 94.5392 222 120 222C145.461 222 169.879 220.736 187.882 218.485C205.886 216.235 216 213.183 216 210C216 206.817 205.886 203.765 187.882 201.515C169.879 199.264 145.461 198 120 198C94.5392 198 70.1212 199.264 52.1177 201.515C34.1143 203.765 24 206.817 24 210Z" fill="#FB458C"/>
<path opacity="0.5" d="M27.36 191.52C27.36 193.56 28.92 195.12 30.96 195.12C33 195.12 34.56 193.56 34.56 191.52C34.56 189.48 33 187.92 30.96 187.92C29.04 187.92 27.36 189.6 27.36 191.52ZM217.2 195C212.64 196.2 211.68 197.16 210.6 201.6C209.4 197.04 208.44 196.08 204 195C208.44 193.8 209.52 192.84 210.6 188.4C211.68 192.84 212.64 193.92 217.2 195ZM223.8 180.12C217.92 181.68 216.72 182.88 215.16 188.76C213.6 182.88 212.4 181.68 206.52 180.12C212.4 178.56 213.6 177.24 215.16 171.48C216.6 177.36 217.92 178.56 223.8 180.12ZM36.6 59.88C33 60.84 32.28 61.56 31.32 65.16C30.36 61.56 29.64 60.84 26.04 59.88C29.64 58.92 30.36 58.2 31.32 54.6C32.16 58.2 33 58.92 36.6 59.88ZM52.08 41.4C42.72 43.8 40.8 45.84 38.28 55.2C35.88 45.84 33.84 43.92 24.48 41.4C33.84 39 35.76 36.96 38.28 27.6C40.68 36.84 42.72 38.88 52.08 41.4Z" fill="#FB458C"/>
<path opacity="0.2" d="M169.2 36.48V37.44L177.12 44.76L207.48 30.12L180 47.64V56.28L184.44 51.96L188.88 56.28L212.4 27.48V26.52L169.2 36.48Z" fill="#FB458C"/>
<path opacity="0.5" d="M150.36 174.96L120 205.2V162C131.88 162 142.68 166.92 150.36 174.96Z" fill="#FB458C"/>
<path opacity="0.2" d="M120 162V205.2L89.6399 174.84C97.3199 166.92 108.12 162 120 162Z" fill="#FB458C"/>
<path opacity="0.5" d="M185.88 139.32L168.96 156.24C156.48 143.52 139.2 135.6 120 135.6V111.6C145.8 111.6 169.08 122.16 185.88 139.32Z" fill="#FB458C"/>
<path opacity="0.2" d="M120 111.6V135.6C100.8 135.6 83.5201 143.52 71.0401 156.24L54.1201 139.32C70.9201 122.16 94.2001 111.6 120 111.6Z" fill="#FB458C"/>
<path opacity="0.5" d="M220.68 104.52L203.76 121.44C182.4 99.84 152.76 86.4 120 86.4V62.4C159.36 62.4 195 78.48 220.68 104.52Z" fill="#FB458C"/>
<path opacity="0.2" d="M120 62.4V86.4C87.2401 86.4 57.6001 99.84 36.2401 121.56L19.3201 104.52C45.0001 78.48 80.6401 62.4 120 62.4Z" fill="#FB458C"/>
</svg>
