<svg width="240" height="240" viewBox="0 0 240 240" fill="none" xmlns="http://www.w3.org/2000/svg">
<path opacity="0.1" d="M24 210C24 213.183 34.114 216.235 52.118 218.485C70.12 220.736 94.539 222 120 222C145.461 222 169.879 220.736 187.882 218.485C205.886 216.235 216 213.183 216 210C216 206.817 205.886 203.765 187.882 201.515C169.879 199.264 145.461 198 120 198C94.54 198 70.121 199.264 52.118 201.515C34.114 203.765 24 206.817 24 210Z" fill="#B298A5"/>
<path opacity="0.5" d="M50.1599 132.72C50.1599 134.76 51.7199 136.32 53.7599 136.32C55.7999 136.32 57.3599 134.76 57.3599 132.72C57.3599 130.68 55.7999 129.12 53.7599 129.12C51.8399 129.12 50.1599 130.8 50.1599 132.72ZM216 197.52C212.4 198.48 211.56 199.2 210.6 202.92C209.64 199.32 208.92 198.48 205.2 197.52C208.8 196.56 209.64 195.72 210.6 192.12C211.56 195.72 212.28 196.56 216 197.52ZM204 186.36C197.52 188.04 196.08 189.48 194.4 195.96C192.72 189.48 191.28 188.04 184.8 186.36C191.28 184.68 192.72 183.24 194.4 176.76C196.08 183.24 197.52 184.68 204 186.36ZM208.2 45.48C204.6 46.44 203.88 47.16 202.92 50.76C201.96 47.16 201.24 46.44 197.64 45.48C201.24 44.52 201.96 43.8 202.92 40.2C203.76 43.8 204.6 44.52 208.2 45.48ZM205.2 31.8C195.84 34.2 193.92 36.24 191.4 45.6C189 36.24 186.96 34.32 177.6 31.8C186.96 29.4 188.88 27.36 191.4 18C193.8 27.24 195.84 29.28 205.2 31.8Z" fill="#DE3479"/>
<path opacity="0.2" d="M34.8 46.8V47.88L43.8001 56.28L78.3601 39.48L47.1601 59.52H47.04V69.36L52.08 64.44V64.32L52.2001 64.44L57.24 69.36L84 36.6V35.52L34.8 46.8ZM138 57.6C112.2 57.6 91.2001 78.6 91.2001 104.4C91.2001 130.2 112.2 151.2 138 151.2C163.8 151.2 184.8 130.2 184.8 104.4C184.8 78.6 163.8 57.6 138 57.6ZM150 108H126C123.96 108 122.4 106.44 122.4 104.4C122.4 102.36 123.96 100.8 126 100.8H150C152.04 100.8 153.6 102.36 153.6 104.4C153.6 106.44 152.04 108 150 108Z" fill="#FB458C"/>
<path opacity="0.4" d="M138 42C103.56 42 75.5999 69.96 75.5999 104.4C75.5999 121.44 82.4399 136.8 93.4799 148.08L83.6399 157.92L82.7999 157.08C78.5999 152.88 71.7599 152.88 67.5599 157.08L43.7999 180.84C39.5999 185.04 39.5999 191.88 43.7999 196.08L50.6399 202.92C52.7999 205.08 55.5599 206.04 58.3199 206.04C61.0799 206.04 63.8399 204.96 65.9999 202.92L89.7599 179.16C93.9599 174.96 93.9599 168.12 89.7599 163.92L88.9199 163.08L98.9999 153C109.68 161.64 123.36 166.8 138.12 166.8C172.56 166.8 200.52 138.84 200.52 104.4C200.52 69.96 172.44 42 138 42ZM84.5999 174.12L60.8399 197.88C59.3999 199.32 57.1199 199.32 55.7999 197.88L48.9599 191.04C47.5199 189.6 47.5199 187.32 48.9599 186L72.7199 162.24C73.4399 161.52 74.3999 161.16 75.2399 161.16C76.1999 161.16 77.0399 161.52 77.7599 162.24L84.5999 169.08C85.9199 170.4 85.9199 172.68 84.5999 174.12ZM138 159.6C107.52 159.6 82.7999 134.88 82.7999 104.4C82.7999 73.92 107.52 49.2 138 49.2C168.48 49.2 193.2 73.92 193.2 104.4C193.2 134.88 168.48 159.6 138 159.6Z" fill="#FF3F8A"/>
</svg>
